<?xml version="1.0" encoding="utf-8"?>
<svg viewBox="0 0 511 511" style="enable-background:new 0 0 511 511;" xmlns="http://www.w3.org/2000/svg">
  <g transform="matrix(0.519265, 0, 0, 0.519265, 124.914192, 109.63324)">
    <path d="M492.168,309.579l-17.626-10.177c2.96-14.723,4.458-29.466,4.458-43.902c0-14.646-1.474-29.403-4.384-43.946l17.552-10.134 c5.436-3.138,9.325-8.206,10.949-14.269s0.791-12.396-2.348-17.832l-48-83.139c-3.139-5.436-8.206-9.325-14.269-10.949 c-6.064-1.624-12.396-0.791-17.833,2.348l-17.566,10.142C380.912,68.2,354.798,53.092,327,43.692V23.5 C327,10.542,316.458,0,303.5,0h-96C194.542,0,184,10.542,184,23.5v20.193c-27.65,9.362-53.728,24.49-75.999,44.088L90.332,77.579 c-5.437-3.139-11.77-3.973-17.833-2.348c-6.063,1.625-11.13,5.513-14.269,10.949l-48,83.139 c-3.139,5.436-3.972,11.769-2.348,17.832s5.513,11.131,10.949,14.269l17.626,10.177C33.499,226.32,32,241.063,32,255.5 c0,14.644,1.474,29.401,4.384,43.945l-17.552,10.134c-11.222,6.479-15.08,20.879-8.602,32.102l48,83.139 c6.479,11.221,20.879,15.08,32.102,8.601l17.565-10.142c22.19,19.521,48.303,34.629,76.103,44.03V487.5 c0,12.958,10.542,23.5,23.5,23.5h96c12.958,0,23.5-10.542,23.5-23.5v-20.193c27.651-9.362,53.729-24.49,76-44.087l17.668,10.201 c11.221,6.479,25.623,2.62,32.102-8.601l48-83.139C507.248,330.458,503.39,316.058,492.168,309.579z M487.779,334.181l-48,83.138 c-2.343,4.06-7.552,5.455-11.611,3.111l-22.392-12.928c-2.845-1.643-6.43-1.242-8.842,0.989 c-22.893,21.173-50.437,37.148-79.653,46.199c-3.14,0.973-5.281,3.877-5.281,7.164V487.5c0,4.687-3.813,8.5-8.5,8.5h-96 c-4.687,0-8.5-3.813-8.5-8.5v-25.645c0-3.287-2.141-6.191-5.28-7.164c-29.396-9.107-56.974-25.062-79.755-46.139 c-1.421-1.315-3.25-1.995-5.095-1.995c-1.286,0-2.579,0.33-3.748,1.005L82.832,420.43c-4.06,2.343-9.268,0.948-11.611-3.111 l-48-83.138c-2.343-4.059-0.947-9.268,3.111-11.612l22.272-12.859c2.844-1.642,4.289-4.942,3.566-8.146 C48.739,286.357,47,270.858,47,255.5c0-15.1,1.765-30.584,5.247-46.022c0.722-3.203-0.723-6.504-3.566-8.145L26.332,188.43 c-1.966-1.135-3.372-2.968-3.96-5.161c-0.587-2.193-0.286-4.484,0.849-6.45l48-83.139c1.135-1.966,2.968-3.373,5.162-3.96 c2.192-0.588,4.484-0.286,6.45,0.849l22.392,12.928c2.846,1.644,6.43,1.242,8.842-0.989c22.894-21.173,50.437-37.148,79.653-46.199 c3.14-0.973,5.281-3.877,5.281-7.164V23.5c0-4.687,3.813-8.5,8.5-8.5h96c4.687,0,8.5,3.813,8.5,8.5v25.645 c0,3.287,2.141,6.191,5.28,7.164c29.395,9.106,56.973,25.061,79.755,46.139c2.412,2.232,5.997,2.633,8.843,0.99l22.29-12.869 c1.967-1.135,4.258-1.437,6.45-0.849c2.193,0.588,4.026,1.994,5.162,3.96l48,83.139c1.135,1.966,1.437,4.257,0.849,6.45 c-0.588,2.193-1.994,4.026-3.96,5.161l-22.272,12.859c-2.844,1.642-4.289,4.943-3.566,8.146c3.431,15.206,5.17,30.704,5.17,46.065 c0,15.1-1.765,30.584-5.247,46.021c-0.722,3.203,0.723,6.503,3.566,8.145l22.349,12.903 C488.727,324.913,490.123,330.122,487.779,334.181z" style="fill: rgba(16, 75, 146, 0.73);"/>
    <path d="M255.5,104C171.962,104,104,171.963,104,255.5S171.962,407,255.5,407S407,339.037,407,255.5S339.038,104,255.5,104z M255.5,392C180.234,392,119,330.766,119,255.5S180.234,119,255.5,119S392,180.234,392,255.5S330.766,392,255.5,392z" style="fill: rgba(16, 75, 146, 0.73);"/>
    <path d="M283.5,216h-28c-4.142,0-7.5,3.358-7.5,7.5v64c0,4.142,3.358,7.5,7.5,7.5s7.5-3.358,7.5-7.5V271h20.5 c15.164,0,27.5-12.336,27.5-27.5S298.664,216,283.5,216z M283.5,256H263v-25h20.5c6.893,0,12.5,5.607,12.5,12.5 S290.393,256,283.5,256z" style="fill: rgba(16, 75, 146, 0.73);"/>
    <path d="M214.522,220.867c-1.098-2.927-3.896-4.867-7.022-4.867h-8c-3.126,0-5.925,1.939-7.022,4.867l-24,64 c-1.455,3.878,0.511,8.201,4.389,9.656c3.878,1.455,8.201-0.511,9.656-4.389L186.697,279h33.605l4.175,11.133 c1.129,3.011,3.987,4.869,7.023,4.869c0.875,0,1.765-0.154,2.632-0.479c3.878-1.454,5.844-5.778,4.389-9.656L214.522,220.867z M192.322,264l11.178-29.807L214.678,264H192.322z" style="fill: rgba(16, 75, 146, 0.73);"/>
    <path d="M327.5,216c-4.142,0-7.5,3.358-7.5,7.5v64c0,4.142,3.358,7.5,7.5,7.5s7.5-3.358,7.5-7.5v-64 C335,219.358,331.642,216,327.5,216z" style="fill: rgba(16, 75, 146, 0.73);"/>
  </g>
  <g/>
  <g/>
  <g/>
  <g/>
  <g/>
  <g/>
  <g/>
  <g/>
  <g/>
  <g/>
  <g/>
  <g/>
  <g/>
  <g/>
  <g/>
  <text style="fill: rgba(16, 75, 146, 0.81); font-family: &quot;Arial Rounded MT Bold&quot;; font-size: 130px; white-space: pre;" x="0" y="483.446">Pipeline</text>
  <rect x="2.689" y="12.649" width="97.311" height="55.23" style="fill: none; stroke-width: 6px; stroke: rgb(16, 74, 146);"/>
  <rect x="200" y="12.649" width="97.311" height="55.23" style="fill: none; stroke-width: 6px; stroke: rgb(16, 74, 146);"/>
  <rect x="399.689" y="12.649" width="97.311" height="55.23" style="fill: none; stroke-width: 6px; stroke: rgb(16, 74, 146);"/>
  <ellipse style="fill: rgb(145, 174, 212);" cx="99.681" cy="41.546" rx="7" ry="7"/>
  <ellipse style="fill: rgb(145, 174, 212);" cx="199" cy="41.546" rx="7" ry="7"/>
  <ellipse style="fill: rgb(145, 174, 212);" cx="297.367" cy="40.502" rx="7" ry="7"/>
  <ellipse style="fill: rgb(145, 174, 212);" cx="400" cy="41.502" rx="7" ry="7"/>
  <rect x="106.681" y="40.546" width="85.319" height="4" style="stroke: rgb(0, 0, 0); fill: rgb(16, 74, 146);"/>
  <rect x="305.681" y="39.546" width="85.319" height="4" style="stroke: rgb(0, 0, 0); fill: rgb(16, 74, 146);"/>
  <path d="M 499.69 108.123 C 497.235 98.936 478.963 89.9 447 89.9 C 415.037 89.9 396.762 98.936 394.309 108.123 C 394.131 108.437 394 108.782 394 109.172 L 394 110.243 L 394 134.869 L 394 135.939 L 394 137.011 L 394 160.566 L 394 161.636 L 394 162.707 L 394 188.404 C 394 188.751 394.091 189.079 394.248 189.37 C 396.752 199.852 419.152 207.676 447 207.676 C 474.784 207.676 497.148 199.884 499.735 189.44 C 499.904 189.134 500 188.781 500 188.404 L 500 162.707 L 500 161.636 L 500 160.566 L 500 137.011 L 500 135.939 L 500 134.869 L 500 110.243 L 500 109.172 C 500 108.782 499.868 108.437 499.69 108.123 Z M 495.592 162.675 C 495.533 162.934 495.45 163.191 495.347 163.452 C 495.262 163.665 495.158 163.877 495.043 164.088 C 494.901 164.351 494.742 164.615 494.553 164.879 C 494.413 165.078 494.254 165.275 494.089 165.472 C 493.854 165.752 493.604 166.033 493.32 166.311 C 493.148 166.48 492.959 166.647 492.768 166.816 C 492.42 167.123 492.058 167.427 491.653 167.729 C 491.479 167.859 491.293 167.986 491.108 168.114 C 490.629 168.448 490.129 168.78 489.58 169.106 C 489.435 169.194 489.281 169.277 489.13 169.362 C 488.499 169.722 487.839 170.08 487.127 170.427 C 487.036 170.472 486.941 170.515 486.847 170.558 C 486.052 170.937 485.221 171.309 484.333 171.669 C 484.308 171.68 484.282 171.688 484.257 171.699 C 479.442 173.641 473.283 175.275 466.107 176.346 C 466.071 176.35 466.035 176.355 465.999 176.361 C 464.604 176.568 463.173 176.753 461.704 176.915 C 461.465 176.941 461.212 176.958 460.97 176.984 C 459.688 177.119 458.391 177.243 457.055 177.341 C 456.444 177.386 455.804 177.408 455.183 177.446 C 454.178 177.506 453.183 177.573 452.154 177.609 C 450.47 177.663 448.753 177.697 447 177.697 C 445.246 177.697 443.529 177.663 441.844 177.602 C 440.814 177.566 439.819 177.498 438.815 177.44 C 438.193 177.403 437.553 177.38 436.942 177.335 C 435.607 177.237 434.309 177.113 433.027 176.978 C 432.785 176.952 432.533 176.935 432.293 176.909 C 430.824 176.746 429.393 176.56 427.998 176.355 C 427.962 176.35 427.926 176.346 427.89 176.339 C 420.714 175.269 414.555 173.635 409.741 171.692 C 409.715 171.684 409.69 171.673 409.665 171.663 C 408.776 171.303 407.943 170.93 407.15 170.551 C 407.059 170.506 406.961 170.463 406.87 170.42 C 406.158 170.074 405.499 169.718 404.867 169.356 C 404.718 169.27 404.561 169.187 404.417 169.099 C 403.868 168.774 403.368 168.442 402.889 168.108 C 402.707 167.979 402.518 167.853 402.344 167.723 C 401.939 167.42 401.577 167.116 401.229 166.81 C 401.04 166.643 400.849 166.476 400.678 166.304 C 400.394 166.027 400.144 165.748 399.908 165.465 C 399.743 165.268 399.584 165.072 399.444 164.872 C 399.258 164.609 399.098 164.345 398.954 164.082 C 398.839 163.87 398.738 163.658 398.651 163.446 C 398.547 163.187 398.464 162.928 398.405 162.669 C 398.327 162.328 398.239 161.981 398.239 161.636 C 398.239 161.394 398.267 161.152 398.305 160.913 C 398.358 160.589 398.329 160.266 398.239 159.96 L 398.239 144.062 C 398.299 144.118 398.374 144.171 398.435 144.227 C 398.897 144.638 399.368 145.047 399.898 145.441 C 407.884 151.542 423.854 156.283 447 156.283 C 470.049 156.283 485.978 151.581 493.998 145.516 C 494.638 145.045 495.215 144.559 495.757 144.064 L 495.76 144.062 L 495.76 159.96 C 495.671 160.266 495.641 160.589 495.694 160.913 C 495.734 161.152 495.76 161.394 495.76 161.636 C 495.76 161.981 495.673 162.328 495.592 162.675 Z M 495.76 118.365 L 495.76 134.263 C 495.671 134.569 495.641 134.893 495.694 135.216 C 495.734 135.456 495.76 135.698 495.76 135.939 C 495.76 136.284 495.673 136.631 495.592 136.978 C 495.533 137.237 495.45 137.494 495.347 137.756 C 495.262 137.968 495.158 138.18 495.043 138.392 C 494.901 138.655 494.742 138.918 494.553 139.182 C 494.413 139.381 494.254 139.578 494.089 139.775 C 493.854 140.055 493.604 140.336 493.32 140.614 C 493.148 140.784 492.959 140.95 492.768 141.12 C 492.42 141.426 492.058 141.73 491.653 142.032 C 491.479 142.162 491.293 142.289 491.108 142.417 C 490.629 142.752 490.129 143.083 489.58 143.409 C 489.435 143.497 489.281 143.58 489.13 143.666 C 488.499 144.025 487.839 144.383 487.127 144.73 C 487.036 144.775 486.941 144.818 486.847 144.861 C 486.052 145.24 485.221 145.612 484.333 145.972 C 484.308 145.983 484.282 145.991 484.257 146.002 C 479.442 147.944 473.283 149.578 466.107 150.649 C 466.071 150.653 466.035 150.657 465.999 150.664 C 464.604 150.872 463.173 151.056 461.704 151.219 C 461.465 151.244 461.212 151.261 460.97 151.287 C 459.688 151.422 458.391 151.546 457.055 151.645 C 456.444 151.69 455.804 151.711 455.183 151.75 C 454.178 151.81 453.183 151.876 452.154 151.912 C 450.47 151.966 448.753 152 447 152 C 445.246 152 443.529 151.966 441.844 151.906 C 440.814 151.87 439.819 151.801 438.815 151.743 C 438.193 151.707 437.553 151.683 436.942 151.638 C 435.607 151.54 434.309 151.415 433.027 151.281 C 432.785 151.255 432.533 151.238 432.293 151.212 C 430.824 151.049 429.393 150.863 427.998 150.657 C 427.962 150.653 427.926 150.649 427.89 150.642 C 420.714 149.572 414.555 147.938 409.741 145.996 C 409.715 145.987 409.69 145.976 409.665 145.966 C 408.776 145.606 407.943 145.233 407.15 144.854 C 407.059 144.809 406.961 144.766 406.87 144.723 C 406.158 144.376 405.499 144.021 404.867 143.659 C 404.718 143.573 404.561 143.49 404.417 143.403 C 403.868 143.077 403.368 142.745 402.889 142.411 C 402.707 142.282 402.518 142.156 402.344 142.025 C 401.939 141.723 401.577 141.419 401.229 141.113 C 401.04 140.946 400.849 140.779 400.678 140.608 C 400.394 140.33 400.144 140.051 399.908 139.769 C 399.743 139.572 399.584 139.374 399.444 139.176 C 399.258 138.912 399.098 138.648 398.954 138.385 C 398.839 138.173 398.738 137.961 398.651 137.749 C 398.547 137.49 398.464 137.231 398.405 136.972 C 398.327 136.631 398.239 136.284 398.239 135.939 C 398.239 135.698 398.267 135.456 398.305 135.216 C 398.358 134.893 398.329 134.569 398.239 134.263 L 398.239 118.365 C 398.494 118.599 398.784 118.827 399.06 119.059 C 399.213 119.187 399.355 119.316 399.516 119.444 C 400.152 119.95 400.839 120.449 401.583 120.935 C 401.738 121.035 401.911 121.134 402.073 121.235 C 402.696 121.627 403.355 122.01 404.049 122.387 C 404.305 122.526 404.561 122.663 404.827 122.8 C 405.6 123.198 406.412 123.586 407.266 123.961 C 407.407 124.023 407.534 124.087 407.676 124.147 C 408.67 124.573 409.726 124.98 410.824 125.374 C 411.127 125.483 411.445 125.586 411.757 125.693 C 412.63 125.991 413.534 126.276 414.468 126.552 C 414.805 126.65 415.136 126.753 415.482 126.847 C 416.722 127.194 418.002 127.524 419.346 127.828 C 419.531 127.871 419.73 127.905 419.917 127.946 C 421.102 128.207 422.331 128.449 423.595 128.676 C 424.023 128.753 424.457 128.826 424.895 128.899 C 426.096 129.098 427.335 129.28 428.604 129.447 C 428.931 129.49 429.243 129.539 429.573 129.58 C 431.151 129.772 432.783 129.937 434.46 130.079 C 434.873 130.113 435.304 130.139 435.724 130.168 C 437.066 130.267 438.437 130.349 439.841 130.413 C 440.351 130.436 440.86 130.46 441.382 130.479 C 443.209 130.541 445.071 130.586 447 130.586 C 448.929 130.586 450.791 130.541 452.618 130.479 C 453.137 130.46 453.646 130.436 454.159 130.413 C 455.563 130.349 456.934 130.267 458.276 130.168 C 458.696 130.137 459.124 130.113 459.54 130.079 C 461.216 129.94 462.849 129.772 464.426 129.58 C 464.757 129.539 465.068 129.49 465.395 129.447 C 466.665 129.28 467.901 129.098 469.105 128.899 C 469.542 128.826 469.976 128.753 470.405 128.676 C 471.668 128.449 472.898 128.207 474.083 127.946 C 474.269 127.905 474.468 127.869 474.653 127.828 C 475.997 127.524 477.277 127.192 478.518 126.847 C 478.863 126.751 479.194 126.65 479.531 126.552 C 480.466 126.276 481.369 125.991 482.243 125.693 C 482.554 125.586 482.872 125.483 483.175 125.374 C 484.274 124.98 485.332 124.573 486.324 124.147 C 486.465 124.087 486.593 124.023 486.733 123.961 C 487.587 123.584 488.399 123.198 489.173 122.8 C 489.438 122.663 489.696 122.526 489.951 122.387 C 490.644 122.012 491.303 121.629 491.927 121.235 C 492.088 121.134 492.262 121.035 492.417 120.935 C 493.161 120.449 493.847 119.952 494.483 119.444 C 494.643 119.316 494.785 119.187 494.939 119.059 C 495.215 118.827 495.505 118.599 495.76 118.365 Z M 447 94.182 C 475.736 94.182 495.76 102.645 495.76 110.243 C 495.76 117.841 475.736 126.303 447 126.303 C 418.263 126.303 398.239 117.841 398.239 110.243 C 398.239 102.645 418.263 94.182 447 94.182 Z M 495.76 187.768 C 495.73 187.862 495.709 187.959 495.692 188.057 C 494.49 195.464 474.636 203.394 447 203.394 C 419.363 203.394 399.51 195.464 398.308 188.057 C 398.291 187.961 398.267 187.867 398.239 187.776 L 398.239 169.759 C 398.299 169.814 398.374 169.868 398.435 169.924 C 398.897 170.335 399.368 170.744 399.898 171.138 C 407.884 177.239 423.854 181.98 447 181.98 C 470.049 181.98 485.978 177.277 493.998 171.213 C 494.638 170.742 495.215 170.256 495.757 169.761 L 495.76 169.759 L 495.76 187.768 Z" style="fill: rgb(16, 74, 146);"/>
  <path d="M 108.379 108.123 C 105.924 98.936 87.652 89.9 55.689 89.9 C 23.726 89.9 5.451 98.936 2.998 108.123 C 2.82 108.437 2.689 108.782 2.689 109.172 L 2.689 110.243 L 2.689 134.869 L 2.689 135.939 L 2.689 137.011 L 2.689 160.566 L 2.689 161.636 L 2.689 162.707 L 2.689 188.404 C 2.689 188.751 2.78 189.079 2.937 189.37 C 5.441 199.852 27.841 207.676 55.689 207.676 C 83.473 207.676 105.837 199.884 108.424 189.44 C 108.593 189.134 108.689 188.781 108.689 188.404 L 108.689 162.707 L 108.689 161.636 L 108.689 160.566 L 108.689 137.011 L 108.689 135.939 L 108.689 134.869 L 108.689 110.243 L 108.689 109.172 C 108.689 108.782 108.557 108.437 108.379 108.123 Z M 104.281 162.675 C 104.222 162.934 104.139 163.191 104.036 163.452 C 103.951 163.665 103.847 163.877 103.732 164.088 C 103.59 164.351 103.431 164.615 103.242 164.879 C 103.102 165.078 102.943 165.275 102.778 165.472 C 102.543 165.752 102.293 166.033 102.009 166.311 C 101.837 166.48 101.648 166.647 101.457 166.816 C 101.109 167.123 100.747 167.427 100.342 167.729 C 100.168 167.859 99.982 167.986 99.797 168.114 C 99.318 168.448 98.818 168.78 98.269 169.106 C 98.124 169.194 97.97 169.277 97.819 169.362 C 97.188 169.722 96.528 170.08 95.816 170.427 C 95.725 170.472 95.63 170.515 95.536 170.558 C 94.741 170.937 93.91 171.309 93.022 171.669 C 92.997 171.68 92.971 171.688 92.946 171.699 C 88.131 173.641 81.972 175.275 74.796 176.346 C 74.76 176.35 74.724 176.355 74.688 176.361 C 73.293 176.568 71.862 176.753 70.393 176.915 C 70.154 176.941 69.901 176.958 69.659 176.984 C 68.377 177.119 67.08 177.243 65.744 177.341 C 65.133 177.386 64.493 177.408 63.872 177.446 C 62.867 177.506 61.872 177.573 60.843 177.609 C 59.159 177.663 57.442 177.697 55.689 177.697 C 53.935 177.697 52.218 177.663 50.533 177.602 C 49.503 177.566 48.508 177.498 47.504 177.44 C 46.882 177.403 46.242 177.38 45.631 177.335 C 44.296 177.237 42.998 177.113 41.716 176.978 C 41.474 176.952 41.222 176.935 40.982 176.909 C 39.513 176.746 38.082 176.56 36.687 176.355 C 36.651 176.35 36.615 176.346 36.579 176.339 C 29.403 175.269 23.244 173.635 18.43 171.692 C 18.404 171.684 18.379 171.673 18.354 171.663 C 17.465 171.303 16.632 170.93 15.839 170.551 C 15.748 170.506 15.65 170.463 15.559 170.42 C 14.847 170.074 14.188 169.718 13.556 169.356 C 13.407 169.27 13.25 169.187 13.106 169.099 C 12.557 168.774 12.057 168.442 11.578 168.108 C 11.396 167.979 11.207 167.853 11.033 167.723 C 10.628 167.42 10.266 167.116 9.918 166.81 C 9.729 166.643 9.538 166.476 9.367 166.304 C 9.083 166.027 8.833 165.748 8.597 165.465 C 8.432 165.268 8.273 165.072 8.133 164.872 C 7.947 164.609 7.787 164.345 7.643 164.082 C 7.528 163.87 7.427 163.658 7.34 163.446 C 7.236 163.187 7.153 162.928 7.094 162.669 C 7.016 162.328 6.928 161.981 6.928 161.636 C 6.928 161.394 6.956 161.152 6.994 160.913 C 7.047 160.589 7.018 160.266 6.928 159.96 L 6.928 144.062 C 6.988 144.118 7.063 144.171 7.124 144.227 C 7.586 144.638 8.057 145.047 8.587 145.441 C 16.573 151.542 32.543 156.283 55.689 156.283 C 78.738 156.283 94.667 151.581 102.687 145.516 C 103.327 145.045 103.904 144.559 104.446 144.064 L 104.449 144.062 L 104.449 159.96 C 104.36 160.266 104.33 160.589 104.383 160.913 C 104.423 161.152 104.449 161.394 104.449 161.636 C 104.449 161.981 104.362 162.328 104.281 162.675 Z M 104.449 118.365 L 104.449 134.263 C 104.36 134.569 104.33 134.893 104.383 135.216 C 104.423 135.456 104.449 135.698 104.449 135.939 C 104.449 136.284 104.362 136.631 104.281 136.978 C 104.222 137.237 104.139 137.494 104.036 137.756 C 103.951 137.968 103.847 138.18 103.732 138.392 C 103.59 138.655 103.431 138.918 103.242 139.182 C 103.102 139.381 102.943 139.578 102.778 139.775 C 102.543 140.055 102.293 140.336 102.009 140.614 C 101.837 140.784 101.648 140.95 101.457 141.12 C 101.109 141.426 100.747 141.73 100.342 142.032 C 100.168 142.162 99.982 142.289 99.797 142.417 C 99.318 142.752 98.818 143.083 98.269 143.409 C 98.124 143.497 97.97 143.58 97.819 143.666 C 97.188 144.025 96.528 144.383 95.816 144.73 C 95.725 144.775 95.63 144.818 95.536 144.861 C 94.741 145.24 93.91 145.612 93.022 145.972 C 92.997 145.983 92.971 145.991 92.946 146.002 C 88.131 147.944 81.972 149.578 74.796 150.649 C 74.76 150.653 74.724 150.657 74.688 150.664 C 73.293 150.872 71.862 151.056 70.393 151.219 C 70.154 151.244 69.901 151.261 69.659 151.287 C 68.377 151.422 67.08 151.546 65.744 151.645 C 65.133 151.69 64.493 151.711 63.872 151.75 C 62.867 151.81 61.872 151.876 60.843 151.912 C 59.159 151.966 57.442 152 55.689 152 C 53.935 152 52.218 151.966 50.533 151.906 C 49.503 151.87 48.508 151.801 47.504 151.743 C 46.882 151.707 46.242 151.683 45.631 151.638 C 44.296 151.54 42.998 151.415 41.716 151.281 C 41.474 151.255 41.222 151.238 40.982 151.212 C 39.513 151.049 38.082 150.863 36.687 150.657 C 36.651 150.653 36.615 150.649 36.579 150.642 C 29.403 149.572 23.244 147.938 18.43 145.996 C 18.404 145.987 18.379 145.976 18.354 145.966 C 17.465 145.606 16.632 145.233 15.839 144.854 C 15.748 144.809 15.65 144.766 15.559 144.723 C 14.847 144.376 14.188 144.021 13.556 143.659 C 13.407 143.573 13.25 143.49 13.106 143.403 C 12.557 143.077 12.057 142.745 11.578 142.411 C 11.396 142.282 11.207 142.156 11.033 142.025 C 10.628 141.723 10.266 141.419 9.918 141.113 C 9.729 140.946 9.538 140.779 9.367 140.608 C 9.083 140.33 8.833 140.051 8.597 139.769 C 8.432 139.572 8.273 139.374 8.133 139.176 C 7.947 138.912 7.787 138.648 7.643 138.385 C 7.528 138.173 7.427 137.961 7.34 137.749 C 7.236 137.49 7.153 137.231 7.094 136.972 C 7.016 136.631 6.928 136.284 6.928 135.939 C 6.928 135.698 6.956 135.456 6.994 135.216 C 7.047 134.893 7.018 134.569 6.928 134.263 L 6.928 118.365 C 7.183 118.599 7.473 118.827 7.749 119.059 C 7.902 119.187 8.044 119.316 8.205 119.444 C 8.841 119.95 9.528 120.449 10.272 120.935 C 10.427 121.035 10.6 121.134 10.762 121.235 C 11.385 121.627 12.044 122.01 12.738 122.387 C 12.994 122.526 13.25 122.663 13.516 122.8 C 14.289 123.198 15.101 123.586 15.955 123.961 C 16.096 124.023 16.223 124.087 16.365 124.147 C 17.359 124.573 18.415 124.98 19.513 125.374 C 19.816 125.483 20.134 125.586 20.446 125.693 C 21.319 125.991 22.223 126.276 23.157 126.552 C 23.494 126.65 23.825 126.753 24.171 126.847 C 25.411 127.194 26.691 127.524 28.035 127.828 C 28.22 127.871 28.419 127.905 28.606 127.946 C 29.791 128.207 31.02 128.449 32.284 128.676 C 32.712 128.753 33.146 128.826 33.584 128.899 C 34.785 129.098 36.024 129.28 37.293 129.447 C 37.62 129.49 37.932 129.539 38.262 129.58 C 39.84 129.772 41.472 129.937 43.149 130.079 C 43.562 130.113 43.993 130.139 44.413 130.168 C 45.755 130.267 47.126 130.349 48.53 130.413 C 49.04 130.436 49.549 130.46 50.071 130.479 C 51.898 130.541 53.76 130.586 55.689 130.586 C 57.618 130.586 59.48 130.541 61.307 130.479 C 61.826 130.46 62.335 130.436 62.848 130.413 C 64.252 130.349 65.623 130.267 66.965 130.168 C 67.385 130.137 67.813 130.113 68.229 130.079 C 69.905 129.94 71.538 129.772 73.115 129.58 C 73.446 129.539 73.757 129.49 74.084 129.447 C 75.354 129.28 76.59 129.098 77.794 128.899 C 78.231 128.826 78.665 128.753 79.094 128.676 C 80.357 128.449 81.587 128.207 82.772 127.946 C 82.958 127.905 83.157 127.869 83.342 127.828 C 84.686 127.524 85.966 127.192 87.207 126.847 C 87.552 126.751 87.883 126.65 88.22 126.552 C 89.155 126.276 90.058 125.991 90.932 125.693 C 91.243 125.586 91.561 125.483 91.864 125.374 C 92.963 124.98 94.021 124.573 95.013 124.147 C 95.154 124.087 95.282 124.023 95.422 123.961 C 96.276 123.584 97.088 123.198 97.862 122.8 C 98.127 122.663 98.385 122.526 98.64 122.387 C 99.333 122.012 99.992 121.629 100.616 121.235 C 100.777 121.134 100.951 121.035 101.106 120.935 C 101.85 120.449 102.536 119.952 103.172 119.444 C 103.332 119.316 103.474 119.187 103.628 119.059 C 103.904 118.827 104.194 118.599 104.449 118.365 Z M 55.689 94.182 C 84.425 94.182 104.449 102.645 104.449 110.243 C 104.449 117.841 84.425 126.303 55.689 126.303 C 26.952 126.303 6.928 117.841 6.928 110.243 C 6.928 102.645 26.952 94.182 55.689 94.182 Z M 104.449 187.768 C 104.419 187.862 104.398 187.959 104.381 188.057 C 103.179 195.464 83.325 203.394 55.689 203.394 C 28.052 203.394 8.199 195.464 6.997 188.057 C 6.98 187.961 6.956 187.867 6.928 187.776 L 6.928 169.759 C 6.988 169.814 7.063 169.868 7.124 169.924 C 7.586 170.335 8.057 170.744 8.587 171.138 C 16.573 177.239 32.543 181.98 55.689 181.98 C 78.738 181.98 94.667 177.277 102.687 171.213 C 103.327 170.742 103.904 170.256 104.446 169.761 L 104.449 169.759 L 104.449 187.768 Z" style="fill: rgb(16, 74, 146);"/>
</svg>